<mxfile host="Electron" agent="Mozilla/5.0 (Macintosh; Intel Mac OS X 10_15_7) AppleWebKit/537.36 (KHTML, like Gecko) draw.io/24.7.17 Chrome/128.0.6613.36 Electron/32.0.1 Safari/537.36" version="24.7.17">
  <diagram name="Page-1" id="l7RC5cIO4ZXs2lawZN6W">
    <mxGraphModel dx="1206" dy="470" grid="1" gridSize="10" guides="1" tooltips="1" connect="1" arrows="1" fold="1" page="1" pageScale="1" pageWidth="850" pageHeight="1100" math="1" shadow="0">
      <root>
        <mxCell id="0" />
        <mxCell id="1" parent="0" />
        <mxCell id="6_Il0YMkTOBaYCUi4Gbl-4" value="" style="rounded=1;whiteSpace=wrap;html=1;rotation=90;fillColor=#f8cecc;strokeColor=#b85450;strokeWidth=1.5;" parent="1" vertex="1">
          <mxGeometry x="100" y="209.01" width="180" height="61.25" as="geometry" />
        </mxCell>
        <mxCell id="6_Il0YMkTOBaYCUi4Gbl-1" value="" style="ellipse;whiteSpace=wrap;html=1;aspect=fixed;fillColor=#f8cecc;strokeColor=#b85450;strokeWidth=1.5;" parent="1" vertex="1">
          <mxGeometry x="169.37" y="159.63" width="40" height="40" as="geometry" />
        </mxCell>
        <mxCell id="6_Il0YMkTOBaYCUi4Gbl-2" value="" style="ellipse;whiteSpace=wrap;html=1;aspect=fixed;fillColor=#f8cecc;strokeColor=#b85450;strokeWidth=1.5;" parent="1" vertex="1">
          <mxGeometry x="169.37" y="219.63" width="40" height="40" as="geometry" />
        </mxCell>
        <mxCell id="6_Il0YMkTOBaYCUi4Gbl-3" value="" style="ellipse;whiteSpace=wrap;html=1;aspect=fixed;fillColor=#f8cecc;strokeColor=#b85450;strokeWidth=1.5;" parent="1" vertex="1">
          <mxGeometry x="169.37" y="279.63" width="40" height="40" as="geometry" />
        </mxCell>
        <mxCell id="6_Il0YMkTOBaYCUi4Gbl-5" value="" style="rounded=1;whiteSpace=wrap;html=1;rotation=90;fillColor=#dae8fc;strokeColor=#6c8ebf;strokeWidth=1.5;" parent="1" vertex="1">
          <mxGeometry x="169.84" y="208.49" width="279.68" height="61.25" as="geometry" />
        </mxCell>
        <mxCell id="6_Il0YMkTOBaYCUi4Gbl-6" value="" style="ellipse;whiteSpace=wrap;html=1;aspect=fixed;fillColor=#dae8fc;strokeColor=#6c8ebf;strokeWidth=1.5;" parent="1" vertex="1">
          <mxGeometry x="289.37" y="116" width="40" height="40" as="geometry" />
        </mxCell>
        <mxCell id="6_Il0YMkTOBaYCUi4Gbl-7" value="" style="ellipse;whiteSpace=wrap;html=1;aspect=fixed;fillColor=#dae8fc;strokeColor=#6c8ebf;strokeWidth=1.5;" parent="1" vertex="1">
          <mxGeometry x="289.37" y="176" width="40" height="40" as="geometry" />
        </mxCell>
        <mxCell id="6_Il0YMkTOBaYCUi4Gbl-8" value="" style="ellipse;whiteSpace=wrap;html=1;aspect=fixed;fillColor=#dae8fc;strokeColor=#6c8ebf;strokeWidth=1.5;" parent="1" vertex="1">
          <mxGeometry x="289.37" y="266" width="40" height="40" as="geometry" />
        </mxCell>
        <mxCell id="6_Il0YMkTOBaYCUi4Gbl-9" value="" style="ellipse;whiteSpace=wrap;html=1;aspect=fixed;fillColor=#dae8fc;strokeColor=#6c8ebf;strokeWidth=1.5;" parent="1" vertex="1">
          <mxGeometry x="289.37" y="326" width="40" height="40" as="geometry" />
        </mxCell>
        <mxCell id="6_Il0YMkTOBaYCUi4Gbl-10" value="" style="rounded=1;whiteSpace=wrap;html=1;rotation=90;fillColor=#d5e8d4;strokeColor=#82b366;strokeWidth=1.5;" parent="1" vertex="1">
          <mxGeometry x="290" y="209" width="280" height="61.25" as="geometry" />
        </mxCell>
        <mxCell id="6_Il0YMkTOBaYCUi4Gbl-11" value="" style="ellipse;whiteSpace=wrap;html=1;aspect=fixed;fillColor=#d5e8d4;strokeColor=#82b366;strokeWidth=1.5;" parent="1" vertex="1">
          <mxGeometry x="410" y="116" width="40" height="40" as="geometry" />
        </mxCell>
        <mxCell id="6_Il0YMkTOBaYCUi4Gbl-12" value="" style="ellipse;whiteSpace=wrap;html=1;aspect=fixed;fillColor=#d5e8d4;strokeColor=#82b366;strokeWidth=1.5;" parent="1" vertex="1">
          <mxGeometry x="410" y="176" width="40" height="40" as="geometry" />
        </mxCell>
        <mxCell id="6_Il0YMkTOBaYCUi4Gbl-13" value="" style="ellipse;whiteSpace=wrap;html=1;aspect=fixed;fillColor=#d5e8d4;strokeColor=#82b366;strokeWidth=1.5;" parent="1" vertex="1">
          <mxGeometry x="410" y="266" width="40" height="40" as="geometry" />
        </mxCell>
        <mxCell id="6_Il0YMkTOBaYCUi4Gbl-14" value="" style="ellipse;whiteSpace=wrap;html=1;aspect=fixed;fillColor=#d5e8d4;strokeColor=#82b366;strokeWidth=1.5;" parent="1" vertex="1">
          <mxGeometry x="410" y="326" width="40" height="40" as="geometry" />
        </mxCell>
        <mxCell id="6_Il0YMkTOBaYCUi4Gbl-15" value="$$\vdots$$" style="text;html=1;align=center;verticalAlign=middle;resizable=0;points=[];autosize=1;strokeColor=none;fillColor=none;fontColor=#7EA6E0;fontSize=24;" parent="1" vertex="1">
          <mxGeometry x="239.37" y="219.63" width="140" height="40" as="geometry" />
        </mxCell>
        <mxCell id="6_Il0YMkTOBaYCUi4Gbl-16" value="$$\vdots$$" style="text;html=1;align=center;verticalAlign=middle;resizable=0;points=[];autosize=1;strokeColor=none;fillColor=none;fontColor=#97D077;fontSize=24;" parent="1" vertex="1">
          <mxGeometry x="360" y="219.63" width="140" height="40" as="geometry" />
        </mxCell>
        <mxCell id="6_Il0YMkTOBaYCUi4Gbl-17" value="" style="rounded=1;whiteSpace=wrap;html=1;rotation=90;fillColor=#e1d5e7;strokeColor=#9673a6;strokeWidth=1.5;" parent="1" vertex="1">
          <mxGeometry x="520" y="205.38" width="60" height="61.25" as="geometry" />
        </mxCell>
        <mxCell id="6_Il0YMkTOBaYCUi4Gbl-19" value="" style="ellipse;whiteSpace=wrap;html=1;aspect=fixed;fillColor=#e1d5e7;strokeColor=#9673a6;strokeWidth=1.5;" parent="1" vertex="1">
          <mxGeometry x="529.37" y="216" width="40" height="40" as="geometry" />
        </mxCell>
        <mxCell id="6_Il0YMkTOBaYCUi4Gbl-21" style="rounded=0;orthogonalLoop=1;jettySize=auto;html=1;exitX=1;exitY=0.5;exitDx=0;exitDy=0;entryX=0;entryY=0.5;entryDx=0;entryDy=0;fillColor=#dae8fc;strokeColor=#6c8ebf;strokeWidth=1.5;" parent="1" source="6_Il0YMkTOBaYCUi4Gbl-1" target="6_Il0YMkTOBaYCUi4Gbl-6" edge="1">
          <mxGeometry relative="1" as="geometry" />
        </mxCell>
        <mxCell id="6_Il0YMkTOBaYCUi4Gbl-22" style="rounded=0;orthogonalLoop=1;jettySize=auto;html=1;exitX=1;exitY=0.5;exitDx=0;exitDy=0;entryX=0;entryY=0.5;entryDx=0;entryDy=0;fillColor=#dae8fc;strokeColor=#6c8ebf;strokeWidth=1.5;" parent="1" source="6_Il0YMkTOBaYCUi4Gbl-1" target="6_Il0YMkTOBaYCUi4Gbl-7" edge="1">
          <mxGeometry relative="1" as="geometry" />
        </mxCell>
        <mxCell id="6_Il0YMkTOBaYCUi4Gbl-23" style="rounded=0;orthogonalLoop=1;jettySize=auto;html=1;exitX=1;exitY=0.5;exitDx=0;exitDy=0;entryX=0;entryY=0.5;entryDx=0;entryDy=0;fillColor=#dae8fc;strokeColor=#6c8ebf;strokeWidth=1.5;" parent="1" source="6_Il0YMkTOBaYCUi4Gbl-1" target="6_Il0YMkTOBaYCUi4Gbl-8" edge="1">
          <mxGeometry relative="1" as="geometry" />
        </mxCell>
        <mxCell id="6_Il0YMkTOBaYCUi4Gbl-24" style="rounded=0;orthogonalLoop=1;jettySize=auto;html=1;exitX=1;exitY=0.5;exitDx=0;exitDy=0;entryX=0;entryY=0.5;entryDx=0;entryDy=0;fillColor=#dae8fc;strokeColor=#6c8ebf;strokeWidth=1.5;" parent="1" source="6_Il0YMkTOBaYCUi4Gbl-1" target="6_Il0YMkTOBaYCUi4Gbl-9" edge="1">
          <mxGeometry relative="1" as="geometry" />
        </mxCell>
        <mxCell id="6_Il0YMkTOBaYCUi4Gbl-25" style="rounded=0;orthogonalLoop=1;jettySize=auto;html=1;exitX=1;exitY=0.5;exitDx=0;exitDy=0;entryX=0;entryY=0.5;entryDx=0;entryDy=0;fillColor=#dae8fc;strokeColor=#6c8ebf;strokeWidth=1.5;" parent="1" source="6_Il0YMkTOBaYCUi4Gbl-2" target="6_Il0YMkTOBaYCUi4Gbl-6" edge="1">
          <mxGeometry relative="1" as="geometry" />
        </mxCell>
        <mxCell id="6_Il0YMkTOBaYCUi4Gbl-26" style="rounded=0;orthogonalLoop=1;jettySize=auto;html=1;exitX=1;exitY=0.5;exitDx=0;exitDy=0;entryX=0;entryY=0.5;entryDx=0;entryDy=0;fillColor=#dae8fc;strokeColor=#6c8ebf;strokeWidth=1.5;" parent="1" source="6_Il0YMkTOBaYCUi4Gbl-2" target="6_Il0YMkTOBaYCUi4Gbl-7" edge="1">
          <mxGeometry relative="1" as="geometry" />
        </mxCell>
        <mxCell id="6_Il0YMkTOBaYCUi4Gbl-27" style="rounded=0;orthogonalLoop=1;jettySize=auto;html=1;exitX=1;exitY=0.5;exitDx=0;exitDy=0;entryX=0;entryY=0.5;entryDx=0;entryDy=0;fillColor=#dae8fc;strokeColor=#6c8ebf;strokeWidth=1.5;" parent="1" source="6_Il0YMkTOBaYCUi4Gbl-2" target="6_Il0YMkTOBaYCUi4Gbl-8" edge="1">
          <mxGeometry relative="1" as="geometry" />
        </mxCell>
        <mxCell id="6_Il0YMkTOBaYCUi4Gbl-28" style="rounded=0;orthogonalLoop=1;jettySize=auto;html=1;exitX=1;exitY=0.5;exitDx=0;exitDy=0;entryX=0;entryY=0.5;entryDx=0;entryDy=0;fillColor=#dae8fc;strokeColor=#6c8ebf;strokeWidth=1.5;" parent="1" source="6_Il0YMkTOBaYCUi4Gbl-2" target="6_Il0YMkTOBaYCUi4Gbl-9" edge="1">
          <mxGeometry relative="1" as="geometry" />
        </mxCell>
        <mxCell id="6_Il0YMkTOBaYCUi4Gbl-29" style="rounded=0;orthogonalLoop=1;jettySize=auto;html=1;exitX=1;exitY=0.5;exitDx=0;exitDy=0;entryX=0;entryY=0.5;entryDx=0;entryDy=0;fillColor=#dae8fc;strokeColor=#6c8ebf;strokeWidth=1.5;" parent="1" source="6_Il0YMkTOBaYCUi4Gbl-3" target="6_Il0YMkTOBaYCUi4Gbl-6" edge="1">
          <mxGeometry relative="1" as="geometry" />
        </mxCell>
        <mxCell id="6_Il0YMkTOBaYCUi4Gbl-30" style="rounded=0;orthogonalLoop=1;jettySize=auto;html=1;exitX=1;exitY=0.5;exitDx=0;exitDy=0;entryX=0;entryY=0.5;entryDx=0;entryDy=0;fillColor=#dae8fc;strokeColor=#6c8ebf;strokeWidth=1.5;" parent="1" source="6_Il0YMkTOBaYCUi4Gbl-3" target="6_Il0YMkTOBaYCUi4Gbl-7" edge="1">
          <mxGeometry relative="1" as="geometry" />
        </mxCell>
        <mxCell id="6_Il0YMkTOBaYCUi4Gbl-31" style="rounded=0;orthogonalLoop=1;jettySize=auto;html=1;exitX=1;exitY=0.5;exitDx=0;exitDy=0;entryX=0;entryY=0.5;entryDx=0;entryDy=0;fillColor=#dae8fc;strokeColor=#6c8ebf;strokeWidth=1.5;" parent="1" source="6_Il0YMkTOBaYCUi4Gbl-3" target="6_Il0YMkTOBaYCUi4Gbl-8" edge="1">
          <mxGeometry relative="1" as="geometry" />
        </mxCell>
        <mxCell id="6_Il0YMkTOBaYCUi4Gbl-32" style="rounded=0;orthogonalLoop=1;jettySize=auto;html=1;exitX=1;exitY=0.5;exitDx=0;exitDy=0;entryX=0;entryY=0.5;entryDx=0;entryDy=0;fillColor=#dae8fc;strokeColor=#6c8ebf;strokeWidth=1.5;" parent="1" source="6_Il0YMkTOBaYCUi4Gbl-3" target="6_Il0YMkTOBaYCUi4Gbl-9" edge="1">
          <mxGeometry relative="1" as="geometry" />
        </mxCell>
        <mxCell id="6_Il0YMkTOBaYCUi4Gbl-33" style="rounded=0;orthogonalLoop=1;jettySize=auto;html=1;exitX=1;exitY=0.5;exitDx=0;exitDy=0;entryX=0;entryY=0.5;entryDx=0;entryDy=0;fillColor=#d5e8d4;strokeColor=#82b366;strokeWidth=1.5;" parent="1" source="6_Il0YMkTOBaYCUi4Gbl-6" target="6_Il0YMkTOBaYCUi4Gbl-11" edge="1">
          <mxGeometry relative="1" as="geometry" />
        </mxCell>
        <mxCell id="6_Il0YMkTOBaYCUi4Gbl-34" style="rounded=0;orthogonalLoop=1;jettySize=auto;html=1;exitX=1;exitY=0.5;exitDx=0;exitDy=0;entryX=0;entryY=0.5;entryDx=0;entryDy=0;fillColor=#d5e8d4;strokeColor=#82b366;strokeWidth=1.5;" parent="1" source="6_Il0YMkTOBaYCUi4Gbl-6" target="6_Il0YMkTOBaYCUi4Gbl-12" edge="1">
          <mxGeometry relative="1" as="geometry" />
        </mxCell>
        <mxCell id="6_Il0YMkTOBaYCUi4Gbl-35" style="rounded=0;orthogonalLoop=1;jettySize=auto;html=1;exitX=1;exitY=0.5;exitDx=0;exitDy=0;entryX=0;entryY=0.5;entryDx=0;entryDy=0;fillColor=#d5e8d4;strokeColor=#82b366;strokeWidth=1.5;" parent="1" source="6_Il0YMkTOBaYCUi4Gbl-6" target="6_Il0YMkTOBaYCUi4Gbl-13" edge="1">
          <mxGeometry relative="1" as="geometry" />
        </mxCell>
        <mxCell id="6_Il0YMkTOBaYCUi4Gbl-36" style="rounded=0;orthogonalLoop=1;jettySize=auto;html=1;exitX=1;exitY=0.5;exitDx=0;exitDy=0;entryX=0;entryY=0.5;entryDx=0;entryDy=0;fillColor=#d5e8d4;strokeColor=#82b366;strokeWidth=1.5;" parent="1" source="6_Il0YMkTOBaYCUi4Gbl-6" target="6_Il0YMkTOBaYCUi4Gbl-14" edge="1">
          <mxGeometry relative="1" as="geometry" />
        </mxCell>
        <mxCell id="6_Il0YMkTOBaYCUi4Gbl-37" style="rounded=0;orthogonalLoop=1;jettySize=auto;html=1;exitX=1;exitY=0.5;exitDx=0;exitDy=0;entryX=0;entryY=0.5;entryDx=0;entryDy=0;fillColor=#d5e8d4;strokeColor=#82b366;strokeWidth=1.5;" parent="1" source="6_Il0YMkTOBaYCUi4Gbl-7" target="6_Il0YMkTOBaYCUi4Gbl-11" edge="1">
          <mxGeometry relative="1" as="geometry" />
        </mxCell>
        <mxCell id="6_Il0YMkTOBaYCUi4Gbl-38" style="rounded=0;orthogonalLoop=1;jettySize=auto;html=1;exitX=1;exitY=0.5;exitDx=0;exitDy=0;entryX=0;entryY=0.5;entryDx=0;entryDy=0;fillColor=#d5e8d4;strokeColor=#82b366;strokeWidth=1.5;" parent="1" source="6_Il0YMkTOBaYCUi4Gbl-7" target="6_Il0YMkTOBaYCUi4Gbl-12" edge="1">
          <mxGeometry relative="1" as="geometry" />
        </mxCell>
        <mxCell id="6_Il0YMkTOBaYCUi4Gbl-39" style="rounded=0;orthogonalLoop=1;jettySize=auto;html=1;exitX=1;exitY=0.5;exitDx=0;exitDy=0;entryX=0;entryY=0.5;entryDx=0;entryDy=0;fillColor=#d5e8d4;strokeColor=#82b366;strokeWidth=1.5;" parent="1" source="6_Il0YMkTOBaYCUi4Gbl-7" target="6_Il0YMkTOBaYCUi4Gbl-13" edge="1">
          <mxGeometry relative="1" as="geometry" />
        </mxCell>
        <mxCell id="6_Il0YMkTOBaYCUi4Gbl-40" style="rounded=0;orthogonalLoop=1;jettySize=auto;html=1;exitX=1;exitY=0.5;exitDx=0;exitDy=0;entryX=0;entryY=0.5;entryDx=0;entryDy=0;fillColor=#d5e8d4;strokeColor=#82b366;strokeWidth=1.5;" parent="1" source="6_Il0YMkTOBaYCUi4Gbl-7" target="6_Il0YMkTOBaYCUi4Gbl-14" edge="1">
          <mxGeometry relative="1" as="geometry" />
        </mxCell>
        <mxCell id="6_Il0YMkTOBaYCUi4Gbl-41" style="rounded=0;orthogonalLoop=1;jettySize=auto;html=1;exitX=1;exitY=0.5;exitDx=0;exitDy=0;entryX=0;entryY=0.5;entryDx=0;entryDy=0;fillColor=#d5e8d4;strokeColor=#82b366;strokeWidth=1.5;" parent="1" source="6_Il0YMkTOBaYCUi4Gbl-8" target="6_Il0YMkTOBaYCUi4Gbl-11" edge="1">
          <mxGeometry relative="1" as="geometry" />
        </mxCell>
        <mxCell id="6_Il0YMkTOBaYCUi4Gbl-42" style="rounded=0;orthogonalLoop=1;jettySize=auto;html=1;exitX=1;exitY=0.5;exitDx=0;exitDy=0;entryX=0;entryY=0.5;entryDx=0;entryDy=0;fillColor=#d5e8d4;strokeColor=#82b366;strokeWidth=1.5;" parent="1" source="6_Il0YMkTOBaYCUi4Gbl-8" target="6_Il0YMkTOBaYCUi4Gbl-12" edge="1">
          <mxGeometry relative="1" as="geometry" />
        </mxCell>
        <mxCell id="6_Il0YMkTOBaYCUi4Gbl-43" style="rounded=0;orthogonalLoop=1;jettySize=auto;html=1;exitX=1;exitY=0.5;exitDx=0;exitDy=0;entryX=0;entryY=0.5;entryDx=0;entryDy=0;fillColor=#d5e8d4;strokeColor=#82b366;strokeWidth=1.5;" parent="1" source="6_Il0YMkTOBaYCUi4Gbl-8" target="6_Il0YMkTOBaYCUi4Gbl-13" edge="1">
          <mxGeometry relative="1" as="geometry" />
        </mxCell>
        <mxCell id="6_Il0YMkTOBaYCUi4Gbl-44" style="rounded=0;orthogonalLoop=1;jettySize=auto;html=1;exitX=1;exitY=0.5;exitDx=0;exitDy=0;entryX=0;entryY=0.5;entryDx=0;entryDy=0;fillColor=#d5e8d4;strokeColor=#82b366;strokeWidth=1.5;" parent="1" source="6_Il0YMkTOBaYCUi4Gbl-8" target="6_Il0YMkTOBaYCUi4Gbl-14" edge="1">
          <mxGeometry relative="1" as="geometry" />
        </mxCell>
        <mxCell id="6_Il0YMkTOBaYCUi4Gbl-45" style="rounded=0;orthogonalLoop=1;jettySize=auto;html=1;exitX=1;exitY=0.5;exitDx=0;exitDy=0;entryX=0;entryY=0.5;entryDx=0;entryDy=0;fillColor=#d5e8d4;strokeColor=#82b366;strokeWidth=1.5;" parent="1" source="6_Il0YMkTOBaYCUi4Gbl-9" target="6_Il0YMkTOBaYCUi4Gbl-11" edge="1">
          <mxGeometry relative="1" as="geometry" />
        </mxCell>
        <mxCell id="6_Il0YMkTOBaYCUi4Gbl-46" style="rounded=0;orthogonalLoop=1;jettySize=auto;html=1;exitX=1;exitY=0.5;exitDx=0;exitDy=0;entryX=0;entryY=0.5;entryDx=0;entryDy=0;fillColor=#d5e8d4;strokeColor=#82b366;strokeWidth=1.5;" parent="1" source="6_Il0YMkTOBaYCUi4Gbl-9" target="6_Il0YMkTOBaYCUi4Gbl-12" edge="1">
          <mxGeometry relative="1" as="geometry" />
        </mxCell>
        <mxCell id="6_Il0YMkTOBaYCUi4Gbl-47" style="rounded=0;orthogonalLoop=1;jettySize=auto;html=1;exitX=1;exitY=0.5;exitDx=0;exitDy=0;entryX=0;entryY=0.5;entryDx=0;entryDy=0;fillColor=#d5e8d4;strokeColor=#82b366;strokeWidth=1.5;" parent="1" source="6_Il0YMkTOBaYCUi4Gbl-9" target="6_Il0YMkTOBaYCUi4Gbl-13" edge="1">
          <mxGeometry relative="1" as="geometry" />
        </mxCell>
        <mxCell id="6_Il0YMkTOBaYCUi4Gbl-48" style="rounded=0;orthogonalLoop=1;jettySize=auto;html=1;exitX=1;exitY=0.5;exitDx=0;exitDy=0;entryX=0;entryY=0.5;entryDx=0;entryDy=0;fillColor=#d5e8d4;strokeColor=#82b366;strokeWidth=1.5;" parent="1" source="6_Il0YMkTOBaYCUi4Gbl-9" target="6_Il0YMkTOBaYCUi4Gbl-14" edge="1">
          <mxGeometry relative="1" as="geometry" />
        </mxCell>
        <mxCell id="6_Il0YMkTOBaYCUi4Gbl-49" style="rounded=0;orthogonalLoop=1;jettySize=auto;html=1;exitX=1;exitY=0.5;exitDx=0;exitDy=0;entryX=0;entryY=0.5;entryDx=0;entryDy=0;fillColor=#e1d5e7;strokeColor=#9673a6;strokeWidth=1.5;" parent="1" source="6_Il0YMkTOBaYCUi4Gbl-11" target="6_Il0YMkTOBaYCUi4Gbl-19" edge="1">
          <mxGeometry relative="1" as="geometry" />
        </mxCell>
        <mxCell id="6_Il0YMkTOBaYCUi4Gbl-50" style="rounded=0;orthogonalLoop=1;jettySize=auto;html=1;exitX=1;exitY=0.5;exitDx=0;exitDy=0;entryX=0;entryY=0.5;entryDx=0;entryDy=0;fillColor=#e1d5e7;strokeColor=#9673a6;strokeWidth=1.5;" parent="1" source="6_Il0YMkTOBaYCUi4Gbl-12" target="6_Il0YMkTOBaYCUi4Gbl-19" edge="1">
          <mxGeometry relative="1" as="geometry" />
        </mxCell>
        <mxCell id="6_Il0YMkTOBaYCUi4Gbl-51" style="rounded=0;orthogonalLoop=1;jettySize=auto;html=1;exitX=1;exitY=0.5;exitDx=0;exitDy=0;fillColor=#e1d5e7;strokeColor=#9673a6;strokeWidth=1.5;" parent="1" source="6_Il0YMkTOBaYCUi4Gbl-13" edge="1">
          <mxGeometry relative="1" as="geometry">
            <mxPoint x="530" y="240" as="targetPoint" />
          </mxGeometry>
        </mxCell>
        <mxCell id="6_Il0YMkTOBaYCUi4Gbl-52" style="rounded=0;orthogonalLoop=1;jettySize=auto;html=1;exitX=1;exitY=0.5;exitDx=0;exitDy=0;entryX=0;entryY=0.5;entryDx=0;entryDy=0;fillColor=#e1d5e7;strokeColor=#9673a6;strokeWidth=1.5;" parent="1" source="6_Il0YMkTOBaYCUi4Gbl-14" target="6_Il0YMkTOBaYCUi4Gbl-19" edge="1">
          <mxGeometry relative="1" as="geometry" />
        </mxCell>
        <mxCell id="6_Il0YMkTOBaYCUi4Gbl-53" value="$$\mathbf{x}$$" style="text;html=1;align=center;verticalAlign=middle;resizable=0;points=[];autosize=1;strokeColor=none;fillColor=none;fontSize=17;" parent="1" vertex="1">
          <mxGeometry x="69.37" y="224.12" width="140" height="30" as="geometry" />
        </mxCell>
        <mxCell id="6_Il0YMkTOBaYCUi4Gbl-54" value="$$\mathbf{\theta}^1$$" style="text;html=1;align=center;verticalAlign=middle;resizable=0;points=[];autosize=1;strokeColor=none;fillColor=none;fontSize=17;fontColor=#7EA6E0;" parent="1" vertex="1">
          <mxGeometry x="220" y="70" width="190" height="30" as="geometry" />
        </mxCell>
        <mxCell id="6_Il0YMkTOBaYCUi4Gbl-55" value="$$\mathbf{\theta}^2$$" style="text;html=1;align=center;verticalAlign=middle;resizable=0;points=[];autosize=1;strokeColor=none;fillColor=none;fontSize=17;fontColor=#97D077;" parent="1" vertex="1">
          <mxGeometry x="339.37" y="70" width="190" height="30" as="geometry" />
        </mxCell>
        <mxCell id="6_Il0YMkTOBaYCUi4Gbl-56" value="$$\mathbf{\theta}^3$$" style="text;html=1;align=center;verticalAlign=middle;resizable=0;points=[];autosize=1;strokeColor=none;fillColor=none;fontSize=17;fontColor=#A680B8;" parent="1" vertex="1">
          <mxGeometry x="460" y="175.63" width="190" height="30" as="geometry" />
        </mxCell>
        <mxCell id="6_Il0YMkTOBaYCUi4Gbl-57" value="$$f(\mathbf{x}, \mathbf{\theta})$$" style="text;html=1;align=center;verticalAlign=middle;resizable=0;points=[];autosize=1;strokeColor=none;fillColor=none;fontSize=17;" parent="1" vertex="1">
          <mxGeometry x="477" y="221" width="270" height="30" as="geometry" />
        </mxCell>
        <mxCell id="6_Il0YMkTOBaYCUi4Gbl-58" value="" style="ellipse;whiteSpace=wrap;html=1;aspect=fixed;fillColor=#f5f5f5;fontColor=#333333;strokeColor=#666666;strokeWidth=2;" parent="1" vertex="1">
          <mxGeometry x="320" y="520" width="160" height="160" as="geometry" />
        </mxCell>
        <mxCell id="6_Il0YMkTOBaYCUi4Gbl-62" value="" style="rounded=0;orthogonalLoop=1;jettySize=auto;html=1;entryX=0;entryY=0.5;entryDx=0;entryDy=0;fillColor=#f5f5f5;strokeColor=#666666;strokeWidth=2;endSize=2;startSize=6;jumpSize=6;endArrow=classicThin;endFill=1;" parent="1" source="6_Il0YMkTOBaYCUi4Gbl-59" target="6_Il0YMkTOBaYCUi4Gbl-58" edge="1">
          <mxGeometry relative="1" as="geometry" />
        </mxCell>
        <mxCell id="6_Il0YMkTOBaYCUi4Gbl-59" value="$$x_1$$" style="text;html=1;align=center;verticalAlign=middle;resizable=0;points=[];autosize=1;strokeColor=none;fillColor=none;fontSize=20;" parent="1" vertex="1">
          <mxGeometry x="160" y="520" width="100" height="40" as="geometry" />
        </mxCell>
        <mxCell id="6_Il0YMkTOBaYCUi4Gbl-63" value="" style="rounded=0;orthogonalLoop=1;jettySize=auto;html=1;fillColor=#f5f5f5;strokeColor=#666666;strokeWidth=2;endSize=2;startSize=6;jumpSize=6;endArrow=classicThin;endFill=1;" parent="1" source="6_Il0YMkTOBaYCUi4Gbl-60" edge="1">
          <mxGeometry relative="1" as="geometry">
            <mxPoint x="320" y="600" as="targetPoint" />
          </mxGeometry>
        </mxCell>
        <mxCell id="6_Il0YMkTOBaYCUi4Gbl-60" value="$$x_2$$" style="text;html=1;align=center;verticalAlign=middle;resizable=0;points=[];autosize=1;strokeColor=none;fillColor=none;fontSize=20;" parent="1" vertex="1">
          <mxGeometry x="160" y="580" width="100" height="40" as="geometry" />
        </mxCell>
        <mxCell id="6_Il0YMkTOBaYCUi4Gbl-64" value="" style="rounded=0;orthogonalLoop=1;jettySize=auto;html=1;entryX=0;entryY=0.5;entryDx=0;entryDy=0;fillColor=#f5f5f5;strokeColor=#666666;strokeWidth=2;endSize=2;startSize=6;jumpSize=6;endArrow=classicThin;endFill=1;" parent="1" source="6_Il0YMkTOBaYCUi4Gbl-61" target="6_Il0YMkTOBaYCUi4Gbl-58" edge="1">
          <mxGeometry relative="1" as="geometry" />
        </mxCell>
        <mxCell id="6_Il0YMkTOBaYCUi4Gbl-61" value="$$x_3$$" style="text;html=1;align=center;verticalAlign=middle;resizable=0;points=[];autosize=1;strokeColor=none;fillColor=none;fontSize=20;" parent="1" vertex="1">
          <mxGeometry x="160" y="640" width="100" height="40" as="geometry" />
        </mxCell>
        <mxCell id="6_Il0YMkTOBaYCUi4Gbl-65" value="$$g_k(\mathbf{x}\mathbf{w}^\intercal + b)$$" style="text;align=center;verticalAlign=middle;resizable=1;points=[];autosize=1;strokeColor=none;fillColor=none;fontSize=20;html=1;spacing=2;spacingLeft=0;imageWidth=5;imageAspect=0;perimeter=none;expand=1;editable=1;movable=1;rotatable=1;deletable=1;locked=0;connectable=1;resizeWidth=1;" parent="1" vertex="1">
          <mxGeometry x="330.59" y="575" width="138.82" height="50" as="geometry" />
        </mxCell>
        <mxCell id="6_Il0YMkTOBaYCUi4Gbl-66" value="" style="endArrow=classic;html=1;rounded=0;exitX=1;exitY=0.5;exitDx=0;exitDy=0;fillColor=#f5f5f5;strokeColor=#666666;strokeWidth=2;endSize=3;" parent="1" source="6_Il0YMkTOBaYCUi4Gbl-58" edge="1">
          <mxGeometry width="50" height="50" relative="1" as="geometry">
            <mxPoint x="270" y="620" as="sourcePoint" />
            <mxPoint x="560" y="600" as="targetPoint" />
          </mxGeometry>
        </mxCell>
        <mxCell id="69zime3wZdbwWhAw86na-1" value="" style="rounded=1;whiteSpace=wrap;html=1;rotation=90;fillColor=#f8cecc;strokeColor=#b85450;strokeWidth=1.5;" vertex="1" parent="1">
          <mxGeometry x="130" y="909.01" width="180" height="61.25" as="geometry" />
        </mxCell>
        <mxCell id="69zime3wZdbwWhAw86na-2" value="" style="ellipse;whiteSpace=wrap;html=1;aspect=fixed;fillColor=#f8cecc;strokeColor=#b85450;strokeWidth=1.5;" vertex="1" parent="1">
          <mxGeometry x="199.37" y="859.63" width="40" height="40" as="geometry" />
        </mxCell>
        <mxCell id="69zime3wZdbwWhAw86na-3" value="" style="ellipse;whiteSpace=wrap;html=1;aspect=fixed;fillColor=#f8cecc;strokeColor=#b85450;strokeWidth=1.5;" vertex="1" parent="1">
          <mxGeometry x="199.37" y="919.63" width="40" height="40" as="geometry" />
        </mxCell>
        <mxCell id="69zime3wZdbwWhAw86na-4" value="" style="ellipse;whiteSpace=wrap;html=1;aspect=fixed;fillColor=#f8cecc;strokeColor=#b85450;strokeWidth=1.5;" vertex="1" parent="1">
          <mxGeometry x="199.37" y="979.63" width="40" height="40" as="geometry" />
        </mxCell>
        <mxCell id="69zime3wZdbwWhAw86na-5" value="" style="rounded=1;whiteSpace=wrap;html=1;rotation=90;fillColor=#dae8fc;strokeColor=#6c8ebf;strokeWidth=1.5;" vertex="1" parent="1">
          <mxGeometry x="199.84" y="908.49" width="279.68" height="61.25" as="geometry" />
        </mxCell>
        <mxCell id="69zime3wZdbwWhAw86na-6" value="" style="ellipse;whiteSpace=wrap;html=1;aspect=fixed;fillColor=#dae8fc;strokeColor=#6c8ebf;strokeWidth=1.5;" vertex="1" parent="1">
          <mxGeometry x="319.37" y="816" width="40" height="40" as="geometry" />
        </mxCell>
        <mxCell id="69zime3wZdbwWhAw86na-7" value="" style="ellipse;whiteSpace=wrap;html=1;aspect=fixed;fillColor=#dae8fc;strokeColor=#6c8ebf;strokeWidth=1.5;" vertex="1" parent="1">
          <mxGeometry x="319.37" y="876" width="40" height="40" as="geometry" />
        </mxCell>
        <mxCell id="69zime3wZdbwWhAw86na-8" value="" style="ellipse;whiteSpace=wrap;html=1;aspect=fixed;fillColor=#dae8fc;strokeColor=#6c8ebf;strokeWidth=1.5;" vertex="1" parent="1">
          <mxGeometry x="319.37" y="966" width="40" height="40" as="geometry" />
        </mxCell>
        <mxCell id="69zime3wZdbwWhAw86na-9" value="" style="ellipse;whiteSpace=wrap;html=1;aspect=fixed;fillColor=#dae8fc;strokeColor=#6c8ebf;strokeWidth=1.5;" vertex="1" parent="1">
          <mxGeometry x="319.37" y="1026" width="40" height="40" as="geometry" />
        </mxCell>
        <mxCell id="69zime3wZdbwWhAw86na-10" value="" style="rounded=1;whiteSpace=wrap;html=1;rotation=90;fillColor=#d5e8d4;strokeColor=#82b366;strokeWidth=1.5;" vertex="1" parent="1">
          <mxGeometry x="320" y="909" width="280" height="61.25" as="geometry" />
        </mxCell>
        <mxCell id="69zime3wZdbwWhAw86na-11" value="" style="ellipse;whiteSpace=wrap;html=1;aspect=fixed;fillColor=#d5e8d4;strokeColor=#82b366;strokeWidth=1.5;" vertex="1" parent="1">
          <mxGeometry x="440" y="816" width="40" height="40" as="geometry" />
        </mxCell>
        <mxCell id="69zime3wZdbwWhAw86na-12" value="" style="ellipse;whiteSpace=wrap;html=1;aspect=fixed;fillColor=#d5e8d4;strokeColor=#82b366;strokeWidth=1.5;" vertex="1" parent="1">
          <mxGeometry x="440" y="876" width="40" height="40" as="geometry" />
        </mxCell>
        <mxCell id="69zime3wZdbwWhAw86na-13" value="" style="ellipse;whiteSpace=wrap;html=1;aspect=fixed;fillColor=#d5e8d4;strokeColor=#82b366;strokeWidth=1.5;" vertex="1" parent="1">
          <mxGeometry x="440" y="966" width="40" height="40" as="geometry" />
        </mxCell>
        <mxCell id="69zime3wZdbwWhAw86na-14" value="" style="ellipse;whiteSpace=wrap;html=1;aspect=fixed;fillColor=#d5e8d4;strokeColor=#82b366;strokeWidth=1.5;" vertex="1" parent="1">
          <mxGeometry x="440" y="1026" width="40" height="40" as="geometry" />
        </mxCell>
        <mxCell id="69zime3wZdbwWhAw86na-15" value="$$\vdots$$" style="text;html=1;align=center;verticalAlign=middle;resizable=1;points=[];autosize=1;strokeColor=none;fillColor=none;fontColor=#7EA6E0;fontSize=24;" vertex="1" parent="1">
          <mxGeometry x="310" y="919.63" width="60" height="40" as="geometry" />
        </mxCell>
        <mxCell id="69zime3wZdbwWhAw86na-16" value="$$\vdots$$" style="text;html=1;align=center;verticalAlign=middle;resizable=1;points=[];autosize=1;strokeColor=none;fillColor=none;fontColor=#97D077;fontSize=24;" vertex="1" parent="1">
          <mxGeometry x="430" y="919.63" width="60" height="40" as="geometry" />
        </mxCell>
        <mxCell id="69zime3wZdbwWhAw86na-17" value="" style="rounded=1;whiteSpace=wrap;html=1;rotation=90;fillColor=#e1d5e7;strokeColor=#9673a6;strokeWidth=1.5;" vertex="1" parent="1">
          <mxGeometry x="477" y="910.14" width="208.75" height="61.25" as="geometry" />
        </mxCell>
        <mxCell id="69zime3wZdbwWhAw86na-18" value="" style="ellipse;whiteSpace=wrap;html=1;aspect=fixed;fillColor=#e1d5e7;strokeColor=#9673a6;strokeWidth=1.5;" vertex="1" parent="1">
          <mxGeometry x="561.37" y="846.63" width="40" height="40" as="geometry" />
        </mxCell>
        <mxCell id="69zime3wZdbwWhAw86na-19" style="rounded=0;orthogonalLoop=1;jettySize=auto;html=1;exitX=1;exitY=0.5;exitDx=0;exitDy=0;entryX=0;entryY=0.5;entryDx=0;entryDy=0;fillColor=#dae8fc;strokeColor=#6c8ebf;strokeWidth=1.5;" edge="1" parent="1" source="69zime3wZdbwWhAw86na-2" target="69zime3wZdbwWhAw86na-6">
          <mxGeometry relative="1" as="geometry" />
        </mxCell>
        <mxCell id="69zime3wZdbwWhAw86na-20" style="rounded=0;orthogonalLoop=1;jettySize=auto;html=1;exitX=1;exitY=0.5;exitDx=0;exitDy=0;entryX=0;entryY=0.5;entryDx=0;entryDy=0;fillColor=#dae8fc;strokeColor=#6c8ebf;strokeWidth=1.5;" edge="1" parent="1" source="69zime3wZdbwWhAw86na-2" target="69zime3wZdbwWhAw86na-7">
          <mxGeometry relative="1" as="geometry" />
        </mxCell>
        <mxCell id="69zime3wZdbwWhAw86na-21" style="rounded=0;orthogonalLoop=1;jettySize=auto;html=1;exitX=1;exitY=0.5;exitDx=0;exitDy=0;entryX=0;entryY=0.5;entryDx=0;entryDy=0;fillColor=#dae8fc;strokeColor=#6c8ebf;strokeWidth=1.5;" edge="1" parent="1" source="69zime3wZdbwWhAw86na-2" target="69zime3wZdbwWhAw86na-8">
          <mxGeometry relative="1" as="geometry" />
        </mxCell>
        <mxCell id="69zime3wZdbwWhAw86na-22" style="rounded=0;orthogonalLoop=1;jettySize=auto;html=1;exitX=1;exitY=0.5;exitDx=0;exitDy=0;entryX=0;entryY=0.5;entryDx=0;entryDy=0;fillColor=#dae8fc;strokeColor=#6c8ebf;strokeWidth=1.5;" edge="1" parent="1" source="69zime3wZdbwWhAw86na-2" target="69zime3wZdbwWhAw86na-9">
          <mxGeometry relative="1" as="geometry" />
        </mxCell>
        <mxCell id="69zime3wZdbwWhAw86na-23" style="rounded=0;orthogonalLoop=1;jettySize=auto;html=1;exitX=1;exitY=0.5;exitDx=0;exitDy=0;entryX=0;entryY=0.5;entryDx=0;entryDy=0;fillColor=#dae8fc;strokeColor=#6c8ebf;strokeWidth=1.5;" edge="1" parent="1" source="69zime3wZdbwWhAw86na-3" target="69zime3wZdbwWhAw86na-6">
          <mxGeometry relative="1" as="geometry" />
        </mxCell>
        <mxCell id="69zime3wZdbwWhAw86na-24" style="rounded=0;orthogonalLoop=1;jettySize=auto;html=1;exitX=1;exitY=0.5;exitDx=0;exitDy=0;entryX=0;entryY=0.5;entryDx=0;entryDy=0;fillColor=#dae8fc;strokeColor=#6c8ebf;strokeWidth=1.5;" edge="1" parent="1" source="69zime3wZdbwWhAw86na-3" target="69zime3wZdbwWhAw86na-7">
          <mxGeometry relative="1" as="geometry" />
        </mxCell>
        <mxCell id="69zime3wZdbwWhAw86na-25" style="rounded=0;orthogonalLoop=1;jettySize=auto;html=1;exitX=1;exitY=0.5;exitDx=0;exitDy=0;entryX=0;entryY=0.5;entryDx=0;entryDy=0;fillColor=#dae8fc;strokeColor=#6c8ebf;strokeWidth=1.5;" edge="1" parent="1" source="69zime3wZdbwWhAw86na-3" target="69zime3wZdbwWhAw86na-8">
          <mxGeometry relative="1" as="geometry" />
        </mxCell>
        <mxCell id="69zime3wZdbwWhAw86na-26" style="rounded=0;orthogonalLoop=1;jettySize=auto;html=1;exitX=1;exitY=0.5;exitDx=0;exitDy=0;entryX=0;entryY=0.5;entryDx=0;entryDy=0;fillColor=#dae8fc;strokeColor=#6c8ebf;strokeWidth=1.5;" edge="1" parent="1" source="69zime3wZdbwWhAw86na-3" target="69zime3wZdbwWhAw86na-9">
          <mxGeometry relative="1" as="geometry" />
        </mxCell>
        <mxCell id="69zime3wZdbwWhAw86na-27" style="rounded=0;orthogonalLoop=1;jettySize=auto;html=1;exitX=1;exitY=0.5;exitDx=0;exitDy=0;entryX=0;entryY=0.5;entryDx=0;entryDy=0;fillColor=#dae8fc;strokeColor=#6c8ebf;strokeWidth=1.5;" edge="1" parent="1" source="69zime3wZdbwWhAw86na-4" target="69zime3wZdbwWhAw86na-6">
          <mxGeometry relative="1" as="geometry" />
        </mxCell>
        <mxCell id="69zime3wZdbwWhAw86na-28" style="rounded=0;orthogonalLoop=1;jettySize=auto;html=1;exitX=1;exitY=0.5;exitDx=0;exitDy=0;entryX=0;entryY=0.5;entryDx=0;entryDy=0;fillColor=#dae8fc;strokeColor=#6c8ebf;strokeWidth=1.5;" edge="1" parent="1" source="69zime3wZdbwWhAw86na-4" target="69zime3wZdbwWhAw86na-7">
          <mxGeometry relative="1" as="geometry" />
        </mxCell>
        <mxCell id="69zime3wZdbwWhAw86na-29" style="rounded=0;orthogonalLoop=1;jettySize=auto;html=1;exitX=1;exitY=0.5;exitDx=0;exitDy=0;entryX=0;entryY=0.5;entryDx=0;entryDy=0;fillColor=#dae8fc;strokeColor=#6c8ebf;strokeWidth=1.5;" edge="1" parent="1" source="69zime3wZdbwWhAw86na-4" target="69zime3wZdbwWhAw86na-8">
          <mxGeometry relative="1" as="geometry" />
        </mxCell>
        <mxCell id="69zime3wZdbwWhAw86na-30" style="rounded=0;orthogonalLoop=1;jettySize=auto;html=1;exitX=1;exitY=0.5;exitDx=0;exitDy=0;entryX=0;entryY=0.5;entryDx=0;entryDy=0;fillColor=#dae8fc;strokeColor=#6c8ebf;strokeWidth=1.5;" edge="1" parent="1" source="69zime3wZdbwWhAw86na-4" target="69zime3wZdbwWhAw86na-9">
          <mxGeometry relative="1" as="geometry" />
        </mxCell>
        <mxCell id="69zime3wZdbwWhAw86na-31" style="rounded=0;orthogonalLoop=1;jettySize=auto;html=1;exitX=1;exitY=0.5;exitDx=0;exitDy=0;entryX=0;entryY=0.5;entryDx=0;entryDy=0;fillColor=#d5e8d4;strokeColor=#82b366;strokeWidth=1.5;" edge="1" parent="1" source="69zime3wZdbwWhAw86na-6" target="69zime3wZdbwWhAw86na-11">
          <mxGeometry relative="1" as="geometry" />
        </mxCell>
        <mxCell id="69zime3wZdbwWhAw86na-32" style="rounded=0;orthogonalLoop=1;jettySize=auto;html=1;exitX=1;exitY=0.5;exitDx=0;exitDy=0;entryX=0;entryY=0.5;entryDx=0;entryDy=0;fillColor=#d5e8d4;strokeColor=#82b366;strokeWidth=1.5;" edge="1" parent="1" source="69zime3wZdbwWhAw86na-6" target="69zime3wZdbwWhAw86na-12">
          <mxGeometry relative="1" as="geometry" />
        </mxCell>
        <mxCell id="69zime3wZdbwWhAw86na-33" style="rounded=0;orthogonalLoop=1;jettySize=auto;html=1;exitX=1;exitY=0.5;exitDx=0;exitDy=0;entryX=0;entryY=0.5;entryDx=0;entryDy=0;fillColor=#d5e8d4;strokeColor=#82b366;strokeWidth=1.5;" edge="1" parent="1" source="69zime3wZdbwWhAw86na-6" target="69zime3wZdbwWhAw86na-13">
          <mxGeometry relative="1" as="geometry" />
        </mxCell>
        <mxCell id="69zime3wZdbwWhAw86na-34" style="rounded=0;orthogonalLoop=1;jettySize=auto;html=1;exitX=1;exitY=0.5;exitDx=0;exitDy=0;entryX=0;entryY=0.5;entryDx=0;entryDy=0;fillColor=#d5e8d4;strokeColor=#82b366;strokeWidth=1.5;" edge="1" parent="1" source="69zime3wZdbwWhAw86na-6" target="69zime3wZdbwWhAw86na-14">
          <mxGeometry relative="1" as="geometry" />
        </mxCell>
        <mxCell id="69zime3wZdbwWhAw86na-35" style="rounded=0;orthogonalLoop=1;jettySize=auto;html=1;exitX=1;exitY=0.5;exitDx=0;exitDy=0;entryX=0;entryY=0.5;entryDx=0;entryDy=0;fillColor=#d5e8d4;strokeColor=#82b366;strokeWidth=1.5;" edge="1" parent="1" source="69zime3wZdbwWhAw86na-7" target="69zime3wZdbwWhAw86na-11">
          <mxGeometry relative="1" as="geometry" />
        </mxCell>
        <mxCell id="69zime3wZdbwWhAw86na-36" style="rounded=0;orthogonalLoop=1;jettySize=auto;html=1;exitX=1;exitY=0.5;exitDx=0;exitDy=0;entryX=0;entryY=0.5;entryDx=0;entryDy=0;fillColor=#d5e8d4;strokeColor=#82b366;strokeWidth=1.5;" edge="1" parent="1" source="69zime3wZdbwWhAw86na-7" target="69zime3wZdbwWhAw86na-12">
          <mxGeometry relative="1" as="geometry" />
        </mxCell>
        <mxCell id="69zime3wZdbwWhAw86na-37" style="rounded=0;orthogonalLoop=1;jettySize=auto;html=1;exitX=1;exitY=0.5;exitDx=0;exitDy=0;entryX=0;entryY=0.5;entryDx=0;entryDy=0;fillColor=#d5e8d4;strokeColor=#82b366;strokeWidth=1.5;" edge="1" parent="1" source="69zime3wZdbwWhAw86na-7" target="69zime3wZdbwWhAw86na-13">
          <mxGeometry relative="1" as="geometry" />
        </mxCell>
        <mxCell id="69zime3wZdbwWhAw86na-38" style="rounded=0;orthogonalLoop=1;jettySize=auto;html=1;exitX=1;exitY=0.5;exitDx=0;exitDy=0;entryX=0;entryY=0.5;entryDx=0;entryDy=0;fillColor=#d5e8d4;strokeColor=#82b366;strokeWidth=1.5;" edge="1" parent="1" source="69zime3wZdbwWhAw86na-7" target="69zime3wZdbwWhAw86na-14">
          <mxGeometry relative="1" as="geometry" />
        </mxCell>
        <mxCell id="69zime3wZdbwWhAw86na-39" style="rounded=0;orthogonalLoop=1;jettySize=auto;html=1;exitX=1;exitY=0.5;exitDx=0;exitDy=0;entryX=0;entryY=0.5;entryDx=0;entryDy=0;fillColor=#d5e8d4;strokeColor=#82b366;strokeWidth=1.5;" edge="1" parent="1" source="69zime3wZdbwWhAw86na-8" target="69zime3wZdbwWhAw86na-11">
          <mxGeometry relative="1" as="geometry" />
        </mxCell>
        <mxCell id="69zime3wZdbwWhAw86na-40" style="rounded=0;orthogonalLoop=1;jettySize=auto;html=1;exitX=1;exitY=0.5;exitDx=0;exitDy=0;entryX=0;entryY=0.5;entryDx=0;entryDy=0;fillColor=#d5e8d4;strokeColor=#82b366;strokeWidth=1.5;" edge="1" parent="1" source="69zime3wZdbwWhAw86na-8" target="69zime3wZdbwWhAw86na-12">
          <mxGeometry relative="1" as="geometry" />
        </mxCell>
        <mxCell id="69zime3wZdbwWhAw86na-41" style="rounded=0;orthogonalLoop=1;jettySize=auto;html=1;exitX=1;exitY=0.5;exitDx=0;exitDy=0;entryX=0;entryY=0.5;entryDx=0;entryDy=0;fillColor=#d5e8d4;strokeColor=#82b366;strokeWidth=1.5;" edge="1" parent="1" source="69zime3wZdbwWhAw86na-8" target="69zime3wZdbwWhAw86na-13">
          <mxGeometry relative="1" as="geometry" />
        </mxCell>
        <mxCell id="69zime3wZdbwWhAw86na-42" style="rounded=0;orthogonalLoop=1;jettySize=auto;html=1;exitX=1;exitY=0.5;exitDx=0;exitDy=0;entryX=0;entryY=0.5;entryDx=0;entryDy=0;fillColor=#d5e8d4;strokeColor=#82b366;strokeWidth=1.5;" edge="1" parent="1" source="69zime3wZdbwWhAw86na-8" target="69zime3wZdbwWhAw86na-14">
          <mxGeometry relative="1" as="geometry" />
        </mxCell>
        <mxCell id="69zime3wZdbwWhAw86na-43" style="rounded=0;orthogonalLoop=1;jettySize=auto;html=1;exitX=1;exitY=0.5;exitDx=0;exitDy=0;entryX=0;entryY=0.5;entryDx=0;entryDy=0;fillColor=#d5e8d4;strokeColor=#82b366;strokeWidth=1.5;" edge="1" parent="1" source="69zime3wZdbwWhAw86na-9" target="69zime3wZdbwWhAw86na-11">
          <mxGeometry relative="1" as="geometry" />
        </mxCell>
        <mxCell id="69zime3wZdbwWhAw86na-44" style="rounded=0;orthogonalLoop=1;jettySize=auto;html=1;exitX=1;exitY=0.5;exitDx=0;exitDy=0;entryX=0;entryY=0.5;entryDx=0;entryDy=0;fillColor=#d5e8d4;strokeColor=#82b366;strokeWidth=1.5;" edge="1" parent="1" source="69zime3wZdbwWhAw86na-9" target="69zime3wZdbwWhAw86na-12">
          <mxGeometry relative="1" as="geometry" />
        </mxCell>
        <mxCell id="69zime3wZdbwWhAw86na-45" style="rounded=0;orthogonalLoop=1;jettySize=auto;html=1;exitX=1;exitY=0.5;exitDx=0;exitDy=0;entryX=0;entryY=0.5;entryDx=0;entryDy=0;fillColor=#d5e8d4;strokeColor=#82b366;strokeWidth=1.5;" edge="1" parent="1" source="69zime3wZdbwWhAw86na-9" target="69zime3wZdbwWhAw86na-13">
          <mxGeometry relative="1" as="geometry" />
        </mxCell>
        <mxCell id="69zime3wZdbwWhAw86na-46" style="rounded=0;orthogonalLoop=1;jettySize=auto;html=1;exitX=1;exitY=0.5;exitDx=0;exitDy=0;entryX=0;entryY=0.5;entryDx=0;entryDy=0;fillColor=#d5e8d4;strokeColor=#82b366;strokeWidth=1.5;" edge="1" parent="1" source="69zime3wZdbwWhAw86na-9" target="69zime3wZdbwWhAw86na-14">
          <mxGeometry relative="1" as="geometry" />
        </mxCell>
        <mxCell id="69zime3wZdbwWhAw86na-51" value="$$\mathbf{x}$$" style="text;html=1;align=center;verticalAlign=middle;resizable=1;points=[];autosize=1;strokeColor=none;fillColor=none;fontSize=17;" vertex="1" parent="1">
          <mxGeometry x="170" y="924.12" width="20" height="30" as="geometry" />
        </mxCell>
        <mxCell id="69zime3wZdbwWhAw86na-54" value="$$Q(s,a_1;\mathbf{\theta})$$" style="text;html=1;align=center;verticalAlign=middle;resizable=1;points=[];autosize=1;strokeColor=none;fillColor=none;fontSize=17;fontColor=#A680B8;resizeWidth=1;resizeHeight=1;" vertex="1" parent="1">
          <mxGeometry x="611.37" y="851.63" width="100" height="30" as="geometry" />
        </mxCell>
        <mxCell id="69zime3wZdbwWhAw86na-55" value="$$\vdots$$" style="text;html=1;align=center;verticalAlign=middle;resizable=1;points=[];autosize=1;strokeColor=none;fillColor=none;fontColor=#A680B8;fontSize=24;" vertex="1" parent="1">
          <mxGeometry x="551.37" y="946.26" width="60" height="40" as="geometry" />
        </mxCell>
        <mxCell id="69zime3wZdbwWhAw86na-56" value="" style="ellipse;whiteSpace=wrap;html=1;aspect=fixed;fillColor=#e1d5e7;strokeColor=#9673a6;strokeWidth=1.5;" vertex="1" parent="1">
          <mxGeometry x="561.37" y="992.63" width="40" height="40" as="geometry" />
        </mxCell>
        <mxCell id="69zime3wZdbwWhAw86na-57" value="" style="ellipse;whiteSpace=wrap;html=1;aspect=fixed;fillColor=#e1d5e7;strokeColor=#9673a6;strokeWidth=1.5;" vertex="1" parent="1">
          <mxGeometry x="561.37" y="900.63" width="40" height="40" as="geometry" />
        </mxCell>
        <mxCell id="69zime3wZdbwWhAw86na-67" style="rounded=0;orthogonalLoop=1;jettySize=auto;html=1;exitX=1;exitY=0.5;exitDx=0;exitDy=0;entryX=0;entryY=0.5;entryDx=0;entryDy=0;fillColor=#e1d5e7;strokeColor=#9673a6;" edge="1" parent="1" source="69zime3wZdbwWhAw86na-12" target="69zime3wZdbwWhAw86na-57">
          <mxGeometry relative="1" as="geometry" />
        </mxCell>
        <mxCell id="69zime3wZdbwWhAw86na-68" style="rounded=0;orthogonalLoop=1;jettySize=auto;html=1;exitX=1;exitY=0.5;exitDx=0;exitDy=0;entryX=0;entryY=0.5;entryDx=0;entryDy=0;fillColor=#e1d5e7;strokeColor=#9673a6;" edge="1" parent="1" source="69zime3wZdbwWhAw86na-12" target="69zime3wZdbwWhAw86na-56">
          <mxGeometry relative="1" as="geometry" />
        </mxCell>
        <mxCell id="69zime3wZdbwWhAw86na-69" style="rounded=0;orthogonalLoop=1;jettySize=auto;html=1;exitX=1;exitY=0.5;exitDx=0;exitDy=0;entryX=0;entryY=0.5;entryDx=0;entryDy=0;fillColor=#e1d5e7;strokeColor=#9673a6;" edge="1" parent="1" source="69zime3wZdbwWhAw86na-14" target="69zime3wZdbwWhAw86na-57">
          <mxGeometry relative="1" as="geometry" />
        </mxCell>
        <mxCell id="69zime3wZdbwWhAw86na-61" style="rounded=0;orthogonalLoop=1;jettySize=auto;html=1;exitX=1;exitY=0.5;exitDx=0;exitDy=0;entryX=0;entryY=0.5;entryDx=0;entryDy=0;fillColor=#e1d5e7;strokeColor=#9673a6;" edge="1" parent="1" source="69zime3wZdbwWhAw86na-11" target="69zime3wZdbwWhAw86na-18">
          <mxGeometry relative="1" as="geometry" />
        </mxCell>
        <mxCell id="69zime3wZdbwWhAw86na-62" style="rounded=0;orthogonalLoop=1;jettySize=auto;html=1;exitX=1;exitY=0.5;exitDx=0;exitDy=0;entryX=0;entryY=0.5;entryDx=0;entryDy=0;fillColor=#e1d5e7;strokeColor=#9673a6;" edge="1" parent="1" source="69zime3wZdbwWhAw86na-11" target="69zime3wZdbwWhAw86na-57">
          <mxGeometry relative="1" as="geometry" />
        </mxCell>
        <mxCell id="69zime3wZdbwWhAw86na-60" style="rounded=0;orthogonalLoop=1;jettySize=auto;html=1;exitX=1;exitY=0.5;exitDx=0;exitDy=0;entryX=0;entryY=0.5;entryDx=0;entryDy=0;fillColor=#e1d5e7;strokeColor=#9673a6;" edge="1" parent="1" source="69zime3wZdbwWhAw86na-12" target="69zime3wZdbwWhAw86na-18">
          <mxGeometry relative="1" as="geometry" />
        </mxCell>
        <mxCell id="69zime3wZdbwWhAw86na-59" style="rounded=0;orthogonalLoop=1;jettySize=auto;html=1;exitX=1;exitY=0.5;exitDx=0;exitDy=0;entryX=0;entryY=0.5;entryDx=0;entryDy=0;fillColor=#e1d5e7;strokeColor=#9673a6;" edge="1" parent="1" source="69zime3wZdbwWhAw86na-13" target="69zime3wZdbwWhAw86na-57">
          <mxGeometry relative="1" as="geometry" />
        </mxCell>
        <mxCell id="69zime3wZdbwWhAw86na-64" style="rounded=0;orthogonalLoop=1;jettySize=auto;html=1;exitX=1;exitY=0.5;exitDx=0;exitDy=0;entryX=0;entryY=0.5;entryDx=0;entryDy=0;fillColor=#e1d5e7;strokeColor=#9673a6;" edge="1" parent="1" source="69zime3wZdbwWhAw86na-13" target="69zime3wZdbwWhAw86na-56">
          <mxGeometry relative="1" as="geometry" />
        </mxCell>
        <mxCell id="69zime3wZdbwWhAw86na-58" style="rounded=0;orthogonalLoop=1;jettySize=auto;html=1;exitX=1;exitY=0.5;exitDx=0;exitDy=0;entryX=0;entryY=0.5;entryDx=0;entryDy=0;fillColor=#e1d5e7;strokeColor=#9673a6;" edge="1" parent="1" source="69zime3wZdbwWhAw86na-14" target="69zime3wZdbwWhAw86na-56">
          <mxGeometry relative="1" as="geometry" />
        </mxCell>
        <mxCell id="69zime3wZdbwWhAw86na-65" style="rounded=0;orthogonalLoop=1;jettySize=auto;html=1;exitX=1;exitY=0.5;exitDx=0;exitDy=0;entryX=0;entryY=0.5;entryDx=0;entryDy=0;fillColor=#e1d5e7;strokeColor=#9673a6;" edge="1" parent="1" source="69zime3wZdbwWhAw86na-14" target="69zime3wZdbwWhAw86na-56">
          <mxGeometry relative="1" as="geometry" />
        </mxCell>
        <mxCell id="69zime3wZdbwWhAw86na-49" style="rounded=0;orthogonalLoop=1;jettySize=auto;html=1;exitX=1;exitY=0.5;exitDx=0;exitDy=0;fillColor=#e1d5e7;strokeColor=#9673a6;strokeWidth=1.5;entryX=0;entryY=0.5;entryDx=0;entryDy=0;" edge="1" parent="1" source="69zime3wZdbwWhAw86na-13" target="69zime3wZdbwWhAw86na-18">
          <mxGeometry relative="1" as="geometry">
            <mxPoint x="560" y="940" as="targetPoint" />
          </mxGeometry>
        </mxCell>
        <mxCell id="69zime3wZdbwWhAw86na-50" style="rounded=0;orthogonalLoop=1;jettySize=auto;html=1;exitX=1;exitY=0.5;exitDx=0;exitDy=0;entryX=0;entryY=0.5;entryDx=0;entryDy=0;fillColor=#e1d5e7;strokeColor=#9673a6;strokeWidth=1.5;" edge="1" parent="1" source="69zime3wZdbwWhAw86na-14" target="69zime3wZdbwWhAw86na-18">
          <mxGeometry relative="1" as="geometry" />
        </mxCell>
        <mxCell id="69zime3wZdbwWhAw86na-70" value="$$Q(s,a_2;\mathbf{\theta})$$" style="text;html=1;align=center;verticalAlign=middle;resizable=1;points=[];autosize=1;strokeColor=none;fillColor=none;fontSize=17;fontColor=#A680B8;resizeWidth=1;resizeHeight=1;" vertex="1" parent="1">
          <mxGeometry x="610" y="905.63" width="100" height="30" as="geometry" />
        </mxCell>
        <mxCell id="69zime3wZdbwWhAw86na-71" value="$$Q(s,a_{|A|};\mathbf{\theta})$$" style="text;html=1;align=center;verticalAlign=middle;resizable=1;points=[];autosize=1;strokeColor=none;fillColor=none;fontSize=17;fontColor=#A680B8;resizeWidth=1;resizeHeight=1;" vertex="1" parent="1">
          <mxGeometry x="610" y="997.63" width="110" height="30" as="geometry" />
        </mxCell>
      </root>
    </mxGraphModel>
  </diagram>
</mxfile>
